<svg width="48" height="48" viewBox="0 0 48 48" fill="none" xmlns="http://www.w3.org/2000/svg">
<path d="M6 6V26C6 34.4 13.2644 42 24 46C34.736 42 42 34.4 42 26V6H6Z" fill="#95A5A6"/>
<path d="M6 4V24C6 32.4 13.2644 40 24 44C34.736 40 42 32.4 42 24V4H6Z" fill="#ECF0F1"/>
<path d="M6 4V24C6 32.4 13.2644 40 24 44V4H6Z" fill="#ECF0F1"/>
<path d="M10 8V24C10 30.8 15.6502 36.8 24 40C32.35 36.8 38 30.8 38 24V8H10Z" fill="#2ECC71"/>
<path d="M24 8V40C32.35 36.8 38 30.8 38 24V8H24Z" fill="#2ECC71"/>
<path d="M32 18L22.634 27.2L18.7318 23.3999L15.4146 26.8L19.3169 30.5999L22.44 33.8L22.634 34L35.318 21.2L32 18V18Z" fill="#27AE60"/>
<path d="M32 16L22.634 25.2L18.7318 21.3999L15.4146 24.8L19.3169 28.5999L22.44 31.8L22.634 32L35.318 19.2L32 16V16Z" fill="#ECF0F1"/>
</svg>
